<svg width="479" height="480" xmlns="http://www.w3.org/2000/svg" xmlns:xlink="http://www.w3.org/1999/xlink" xml:space="preserve" overflow="hidden"><g transform="translate(-189 -89)"><path d="M389.188 84.8229C389.188 104.113 373.55 119.75 354.26 119.75 334.971 119.75 319.333 104.113 319.333 84.8229 319.333 65.5332 334.971 49.8958 354.26 49.8958 373.55 49.8958 389.188 65.5332 389.188 84.8229Z" fill="#FFFFFF" transform="matrix(1 0 0 1.00209 189 89)"/><path d="M460.04 399.167C457.046 394.676 451.058 392.68 446.568 395.674L423.616 409.146 398.668 409.146 432.098 200.581 432.098 200.581C439.582 196.59 442.077 187.608 438.085 180.124 434.094 172.64 425.112 170.145 417.628 174.136L374.219 197.587 359.749 151.184C358.751 147.193 355.757 144.199 352.265 142.203L300.872 116.257C299.874 115.758 298.876 115.259 297.878 115.259L237.005 100.79C230.02 99.2927 223.034 102.286 220.041 108.773L188.606 173.139 17.4635 244.49 21.4552 253.471 187.608 183.617C188.606 187.608 191.6 190.602 195.093 192.598 202.577 196.091 211.558 193.097 215.051 185.613L240.997 131.725 276.922 140.207 222.036 228.024C222.036 228.024 222.036 228.024 222.036 228.024 221.538 229.022 221.039 229.521 220.54 230.519L190.103 300.373 134.22 342.285C126.236 348.273 124.241 359.749 129.23 368.231L72.349 368.231C66.8604 368.231 62.3698 372.722 62.3698 378.21 62.3698 383.699 66.8604 388.19 72.349 388.19L267.442 388.19C265.446 395.674 267.941 403.158 273.429 408.148L157.172 408.148C151.683 408.148 147.193 412.639 147.193 418.127 147.193 423.616 151.683 428.106 157.172 428.106L426.609 428.106C428.605 428.106 430.102 427.607 431.599 426.609L456.547 411.641C461.038 409.645 462.534 403.657 460.04 399.167ZM219.043 330.31C222.036 328.315 224.032 325.321 225.529 322.327L246.485 273.928 289.396 315.342 273.429 369.229 167.151 369.229 219.043 330.31ZM305.861 399.666 308.855 389.188 341.288 389.188C343.283 389.188 344.78 388.689 346.277 387.691L371.225 372.722C375.716 369.728 377.711 363.741 374.718 359.25 371.724 354.759 365.736 352.764 361.246 355.757L338.793 369.229 314.843 369.229 330.809 314.843C332.805 307.857 330.809 299.874 325.321 294.884L275.425 246.984 336.298 178.128 350.768 224.032C352.265 228.523 355.258 232.016 359.25 233.512 361.246 234.011 362.743 234.51 364.739 234.51 367.233 234.51 369.728 234.011 371.724 232.515L420.622 206.07 388.689 409.146 299.874 409.146C302.369 406.651 304.864 403.657 305.861 399.666Z" fill="#FFFFFF" transform="matrix(1 0 0 1.00209 189 89)"/></g></svg>