<svg width="446" height="447" xmlns="http://www.w3.org/2000/svg" xmlns:xlink="http://www.w3.org/1999/xlink" xml:space="preserve" overflow="hidden"><g transform="translate(-233 -106)"><path d="M262.025 313.998C265.403 314.077 268.873 314.128 272.455 314.128 276.506 314.128 280.511 314.049 284.488 313.938 285.111 311.278 285.243 308.528 284.878 305.821 283.605 296.497 277.175 289.672 270.518 290.583 263.86 291.494 259.484 299.782 260.761 309.111 261.002 310.781 261.426 312.42 262.025 313.998Z" fill="#FFFFFF" transform="matrix(1 0 0 1.00224 233 106)"/><path d="M329.752 309.719C333.176 309.106 336.126 308.488 338.677 307.861 339.011 307.257 339.364 306.671 339.652 306.002 343.443 297.389 341.511 288.214 335.373 285.505 329.236 282.797 321.162 287.586 317.371 296.19 315.038 301.017 314.817 306.596 316.762 311.591 321.334 311.08 325.673 310.444 329.752 309.719Z" fill="#FFFFFF" transform="matrix(1 0 0 1.00224 233 106)"/><path d="M350.83 296.966C350.806 299.157 350.54 301.339 350.036 303.47L352.907 304.232C355.386 304.893 356.861 307.438 356.201 309.917 355.799 311.428 354.664 312.635 353.181 313.129 346.127 315.767 338.823 317.684 331.383 318.848 311.898 322.027 292.178 323.552 272.436 323.406 231.869 323.406 204.003 318.077 191.446 313.087 189.062 312.137 187.901 309.434 188.851 307.051 189.314 305.89 190.226 304.964 191.38 304.483L196.681 302.277C196.131 300.261 195.914 298.169 196.04 296.084 184.003 299.438 176.783 303.601 176.783 308.13 176.783 309.793 176.831 311.447 176.927 313.092 178.239 333.949 188.694 353.162 205.495 365.59 216.597 373.938 229.79 379.055 243.618 380.373 245.972 380.596 248.351 380.709 250.754 380.712L293.031 380.712C318.785 380.751 342.75 367.55 356.479 345.762 362.614 335.922 366.186 324.704 366.872 313.129 366.923 312.307 366.923 311.475 366.947 310.648 366.97 309.821 367.016 308.999 367.016 308.167 367.021 304.005 361.051 300.158 350.83 296.966Z" fill="#FFFFFF" transform="matrix(1 0 0 1.00224 233 106)"/><path d="M213.532 309.371C218.336 310.3 223.808 311.104 229.922 311.814 224.52 305.434 223.365 296.476 226.972 288.934 226.587 288.78 226.238 288.585 225.839 288.469 216.942 285.407 207.952 288.079 205.769 294.434 203.952 299.656 207.362 305.668 213.532 309.371Z" fill="#FFFFFF" transform="matrix(1 0 0 1.00224 233 106)"/><path d="M262.573 283.777C262.166 283.027 261.655 282.338 261.054 281.733 256.301 276.98 247.056 278.522 240.399 285.175 233.741 291.828 232.203 301.078 236.938 305.831 241.047 309.151 246.796 309.542 251.316 306.806 250.575 297.649 254.892 288.817 262.573 283.777Z" fill="#FFFFFF" transform="matrix(1 0 0 1.00224 233 106)"/><path d="M427.417 336.823C427.417 304.186 384.21 275.818 320.562 261.263L320.562 278.815C323.905 276.707 327.762 275.556 331.713 275.489 334.262 275.481 336.784 276.007 339.118 277.031 343.335 278.935 346.709 282.316 348.605 286.536L353.604 288.097C359.22 289.854 376.312 295.196 376.312 308.144 376.312 308.827 376.285 309.505 376.261 310.188L376.215 311.661C376.215 312.325 376.187 312.985 376.15 313.64 376.062 315.104 375.922 316.558 375.755 318.012 379.796 323.464 382.042 330.038 382.18 336.823 382.18 373.757 310.843 403.751 223 403.751 135.157 403.751 63.8198 373.757 63.8198 336.823 63.8198 316.929 84.5402 299.071 117.368 286.811L117.368 281.956C108.85 279.395 100.808 275.461 93.5578 270.309 47.7917 286.063 18.5833 309.989 18.5833 336.823 18.5833 337.311 18.653 337.794 18.6716 338.277 18.6437 338.57 18.5833 338.849 18.5833 339.146 18.5833 392.94 110.283 436.708 223 436.708 335.717 436.708 427.417 392.94 427.417 339.146 427.417 338.849 427.356 338.57 427.328 338.277 427.347 337.794 427.417 337.311 427.417 336.823Z" fill="#FFFFFF" transform="matrix(1 0 0 1.00224 233 106)"/><path d="M173.503 339.095C171.579 338.147 169.571 337.381 167.506 336.804 163.058 335.606 158.497 334.874 153.898 334.621 148.555 332.916 144.425 330.244 144.425 327.085L144.425 270.234C160.458 270.234 190.098 253.974 188.639 237.922L183.297 162.604 93.8876 162.604 87.5693 237.922C86.3568 253.718 115.509 270.234 131.305 270.234L131.305 326.844C131.305 330.244 126.929 332.674 121.828 334.375 116.968 335.104 112.355 335.592 108.708 336.563L108.466 336.563C102.148 338.263 98.5056 340.451 98.5056 343.123 98.5056 348.698 116.239 353.083 138.107 353.083 156.551 353.083 172.3 349.896 176.546 345.492 175.45 343.397 174.409 341.274 173.503 339.095ZM101.177 205.123 103.365 173.531 172.36 173.531 174.061 205.123Z" fill="#FFFFFF" transform="matrix(1 0 0 1.00224 233 106)"/><path d="M218.466 277.891C222.006 277.9 225.52 278.5 228.863 279.665 229.384 279.848 229.896 280.057 230.396 280.292L231.864 280.882C232.505 280.111 233.114 279.326 233.829 278.606 239.063 273.13 246.236 269.926 253.807 269.681 258.957 269.595 263.928 271.57 267.614 275.168 268.841 276.407 269.885 277.814 270.713 279.349L271.744 281.24C274.781 281.288 277.759 282.076 280.423 283.535 282.607 280.862 285.21 278.561 288.13 276.72 292.905 273.634 298.454 271.96 304.139 271.888 304.967 271.927 305.792 272.009 306.611 272.134L306.611 146.135C306.612 129.17 297.191 113.609 282.16 105.744L277.756 28.2978 281.579 28.2978 281.579 24.4975C281.581 22.5445 281.202 20.6099 280.464 18.8017 278.01 13.3857 272.55 9.96666 266.606 10.1233L248.088 10.1233C242.143 9.96541 236.682 13.3848 234.229 18.8017 233.489 20.6093 233.11 22.5443 233.114 24.4975L233.114 28.2978 236.659 28.2978 232.259 105.744C217.225 113.607 207.803 129.169 207.803 146.135L207.803 280.144C211.157 278.644 214.792 277.876 218.466 277.891Z" fill="#FFFFFF" transform="matrix(1 0 0 1.00224 233 106)"/><path d="M308.864 292.488C310.037 289.819 311.562 287.319 313.399 285.054 309.487 280.093 300.688 279.763 293.096 284.543 291.025 285.848 289.179 287.48 287.628 289.375 291.14 293.748 293.373 299.008 294.081 304.572 294.236 305.895 294.31 307.226 294.304 308.558 298.481 308.625 302.582 307.442 306.081 305.162 306.133 305.129 306.174 305.087 306.225 305.055 306.225 300.728 307.124 296.449 308.864 292.488Z" fill="#FFFFFF" transform="matrix(1 0 0 1.00224 233 106)"/></g></svg>