<svg width="506" height="506" xmlns="http://www.w3.org/2000/svg" xmlns:xlink="http://www.w3.org/1999/xlink" xml:space="preserve" overflow="hidden"><g transform="translate(-222 -82)"><path d="M629.383 314.707 567.767 307.381 570.56 231.27C570.825 223.714 567.025 216.595 560.598 212.611L521.489 188.365C519.477 187.108 517.267 186.199 514.953 185.677L413.806 163.329C406.515 161.719 398.917 164.085 393.829 169.549L348.5 217.988C340.553 226.502 341.013 239.847 349.528 247.794 358.042 255.741 371.388 255.281 379.334 246.766L416.23 207.13 477.635 220.676 409.115 298.895C407.006 301.432 405.235 304.232 403.844 307.223 403.292 307.882 402.799 308.587 402.368 309.331L352.664 397.354 281.297 356.083C271.21 350.261 258.314 353.718 252.492 363.805 246.67 373.892 250.127 386.788 260.214 392.61L350.134 444.475C353.33 446.35 356.97 447.333 360.676 447.321 362.544 447.313 364.404 447.065 366.21 446.584 371.637 445.105 376.249 441.518 379.018 436.622L422.292 359.72 490.812 417.699 479.059 531.76C477.862 543.343 486.282 553.702 497.864 554.898 497.868 554.899 497.872 554.899 497.875 554.899L500.089 554.899C510.939 554.956 520.06 546.769 521.172 535.977L533.928 411.005C534.545 404.143 531.77 397.412 526.496 392.979L468.517 343.591 526.707 277.021 524.915 325.407C524.594 336.329 532.67 345.686 543.521 346.965L624.428 356.558 626.958 356.558C638.602 357.227 648.584 348.33 649.254 336.687 649.923 325.043 641.026 315.06 629.383 314.391Z" fill="#FFFFFF"/><path d="M701.646 514.208C701.646 537.496 682.767 556.375 659.479 556.375 636.191 556.375 617.312 537.496 617.312 514.208 617.312 490.92 636.191 472.042 659.479 472.042 682.767 472.042 701.646 490.92 701.646 514.208Z" fill="#FFFFFF"/><path d="M617.312 155.792C617.312 179.08 598.434 197.958 575.146 197.958 551.858 197.958 532.979 179.08 532.979 155.792 532.979 132.504 551.858 113.625 575.146 113.625 598.434 113.625 617.312 132.504 617.312 155.792Z" fill="#FFFFFF"/></g></svg>