<svg width="494" height="494" xmlns="http://www.w3.org/2000/svg" xmlns:xlink="http://www.w3.org/1999/xlink" xml:space="preserve" overflow="hidden"><g transform="translate(-243 -89)"><path d="M560.729 440.316C544.896 459.864 523.891 474.572 500.106 482.764 514.126 467.831 524.445 449.816 530.235 430.169L544.381 430.169 545.364 416.018 534.254 416.018C538.401 398.73 540.678 381.047 541.047 363.273L549.023 363.273 550.006 349.122 541.047 349.122C540.814 339.608 540.063 330.113 538.798 320.681L525.161 326.341C526.041 333.726 526.705 341.3 526.896 349.142L493.839 349.142 489.429 363.294 526.896 363.294C526.503 381.098 524.055 398.797 519.599 416.038L463.957 416.038 463.957 397.292 449.806 403.812 449.806 415.997 394.164 415.997C392.579 410.018 391.313 403.688 390.212 397.199 385.553 399.738 381.176 402.247 377.08 404.728 377.816 408.556 378.624 412.333 379.509 415.997L359.954 415.997C348.409 423.678 338.458 433.519 330.649 444.978 379.667 514.71 475.932 531.502 545.664 482.483 566.364 467.932 583.169 448.514 594.599 425.939ZM345.469 430.169 383.548 430.169C389.334 449.825 399.656 467.848 413.682 482.785 385.788 473.205 361.818 454.716 345.469 430.169ZM449.806 487.396C428.193 483.5 409.761 461.893 398.507 430.148L449.806 430.148ZM463.957 487.396 463.957 430.169 515.256 430.169C504.002 461.893 485.559 483.5 463.957 487.396Z" fill="#FFFFFF"/><path d="M499.602 228.534C493.888 222.164 487.704 216.232 481.103 210.786L471.604 202.517C466.756 202.059 461.827 201.802 456.881 201.802 374.538 201.803 306.691 266.433 302.692 348.679 309.793 342.182 317.496 335.774 325.802 329.455 328.148 317.972 332.001 306.85 337.261 296.377L374.543 296.377 379.092 282.226 345.469 282.226C361.811 257.675 385.772 239.18 413.662 229.589 404.925 238.565 397.736 248.924 392.384 260.248L414.974 249.838C424.838 236.191 436.735 227.315 449.806 224.958L449.806 261.185 463.957 267.967 463.957 224.958C478.88 227.654 492.321 238.852 502.906 255.957L516.089 250.502C511.491 242.548 505.955 235.173 499.602 228.534Z" fill="#FFFFFF"/><path d="M569.493 291.231 560.313 423.556 595.232 408.716 627.965 266.238 693.682 238.61C708.986 232.106 725.659 215.757 720.657 203.984 717.955 197.629 709.418 194.912 699.749 194.881 699.528 194.881 699.302 194.881 699.075 194.881 697.809 194.881 696.502 194.978 695.221 195.081 689.093 195.577 683.078 197.018 677.391 199.352L611.673 227.001 611.514 226.908 611.287 227.001 487.515 150.75 452.435 165.673 552.815 252.015 468.099 287.068 467.919 286.981 467.713 287.068 420.325 264.365 401.893 272.861 419.903 291.525 419.641 291.648 446.811 319.77 448.226 353.897 448.602 353.748 449.96 386.558 468.213 378.15 484.37 326.305 569.107 291.231 569.107 291.396Z" fill="#FFFFFF"/><path d="M310.035 460.617C310.035 428.069 354.464 392.542 433.046 359.99L431.651 326.274 405.063 298.754C300.602 351.242 247.42 418.971 263.882 470.625 272.321 497.09 296.141 512.95 366.248 502.571 366.248 502.571 377.862 500.44 380.142 496.936 331.606 496.951 310.035 482.414 310.035 460.617Z" fill="#FFFFFF"/></g></svg>