<svg width="601" height="601" xmlns="http://www.w3.org/2000/svg" xmlns:xlink="http://www.w3.org/1999/xlink" xml:space="preserve" overflow="hidden"><g transform="translate(-179 -50)"><path d="M682.964 334.849C682.964 365.967 657.738 391.193 626.62 391.193 595.502 391.193 570.276 365.967 570.276 334.849 570.276 303.731 595.502 278.505 626.62 278.505 657.738 278.505 682.964 303.731 682.964 334.849Z" fill="#FFFFFF"/><path d="M354.292 435.016 354.292 435.016C362.43 434.39 370.569 432.511 378.707 429.381 391.228 424.373 403.749 421.869 416.896 421.243 430.043 421.869 443.19 424.373 455.084 429.381 462.597 432.511 470.735 434.39 479.5 435.016 487.639 434.39 495.777 432.511 503.916 429.381 516.436 424.373 528.957 421.869 542.104 421.243 555.251 421.869 568.398 424.373 580.293 429.381L584.675 430.633C584.675 427.503 583.423 424.999 582.171 422.495L569.65 399.331 569.65 398.705 506.42 277.253 612.221 249.707C629.124 245.325 639.141 228.422 634.758 211.519 630.376 194.616 613.473 184.599 596.57 188.981L452.58 226.544C443.19 229.048 435.677 235.308 431.921 244.073 428.165 252.838 428.165 262.854 432.547 270.993L470.735 344.866 331.128 427.503C330.502 428.129 329.876 428.755 328.624 429.381L329.876 430.007C338.015 432.511 346.153 434.39 354.292 435.016Z" fill="#FFFFFF"/><path d="M704.875 470.074C692.98 465.066 680.459 462.561 667.312 461.935L667.312 461.935C654.166 462.561 641.645 465.066 629.75 470.074 621.611 473.204 613.473 475.082 604.708 475.708L604.708 475.708C595.944 475.082 587.805 473.204 579.667 470.074 567.772 465.066 555.251 462.561 542.104 461.935L542.104 461.935C528.957 462.561 516.436 465.066 504.542 470.074 496.403 473.204 488.265 475.082 479.5 475.708 470.735 475.082 462.597 473.204 454.458 470.074 442.564 465.066 430.043 462.561 416.896 461.935L416.896 461.935C403.749 462.561 391.228 465.066 379.333 470.074 371.195 473.204 363.056 475.082 354.292 475.708 345.527 475.082 337.389 473.204 329.25 470.074 317.355 465.066 304.834 462.561 291.688 461.935L291.688 461.935C278.541 462.561 266.02 465.066 254.125 470.074 245.986 473.204 237.848 475.082 229.083 475.708L229.083 513.271C242.23 512.645 254.751 510.141 266.646 505.132 274.784 502.002 282.923 499.498 291.688 499.498 300.452 500.124 308.591 502.002 316.729 505.132 328.624 510.141 341.145 512.645 354.292 513.271L354.292 513.271C367.439 512.645 379.959 510.141 391.854 505.132 399.993 502.002 408.131 499.498 416.896 499.498 425.66 500.124 433.799 502.002 441.938 505.132 453.832 510.141 466.353 512.645 479.5 513.271 492.647 512.645 505.168 510.141 517.062 505.132 525.201 502.002 533.34 499.498 542.104 499.498 550.869 500.124 559.007 502.002 567.146 505.132 579.041 510.141 591.561 512.645 604.708 513.271L604.708 513.271C617.855 512.645 630.376 510.141 642.271 505.132 650.409 502.002 658.548 499.498 667.312 499.498 676.077 500.124 684.216 502.002 692.354 505.132 704.249 510.141 716.77 512.645 729.917 513.271L729.917 475.708C721.152 475.082 713.014 473.204 704.875 470.074Z" fill="#FFFFFF"/></g></svg>