<svg width="494" height="494" xmlns="http://www.w3.org/2000/svg" xmlns:xlink="http://www.w3.org/1999/xlink" xml:space="preserve" overflow="hidden"><g transform="translate(-222 -68)"><path d="M469 140.042C360.938 140.042 273.458 227.521 273.458 335.583L273.458 428.208C273.458 436.956 280.148 443.646 288.896 443.646 297.644 443.646 304.333 436.956 304.333 428.208L304.333 423.062 324.917 423.062 324.917 469.375C324.917 480.696 334.179 489.958 345.5 489.958L376.375 489.958C387.696 489.958 396.958 480.696 396.958 469.375L396.958 356.167C396.958 344.846 387.696 335.583 376.375 335.583L345.5 335.583C334.179 335.583 324.917 344.846 324.917 356.167L324.917 402.479 304.333 402.479 304.333 335.583C304.333 245.017 378.433 170.917 469 170.917 559.567 170.917 633.667 245.017 633.667 335.583L633.667 402.479 613.083 402.479 613.083 356.167C613.083 344.846 603.821 335.583 592.5 335.583L561.625 335.583C550.304 335.583 541.042 344.846 541.042 356.167L541.042 469.375C541.042 480.696 550.304 489.958 561.625 489.958L592.5 489.958C603.821 489.958 613.083 480.696 613.083 469.375L613.083 423.062 633.667 423.062 633.667 428.208C633.667 436.956 640.356 443.646 649.104 443.646 657.852 443.646 664.542 436.956 664.542 428.208L664.542 335.583C664.542 227.521 577.062 140.042 469 140.042Z" fill="#FFFFFF"/></g></svg>