<svg width="494" height="494" xmlns="http://www.w3.org/2000/svg" xmlns:xlink="http://www.w3.org/1999/xlink" xml:space="preserve" overflow="hidden"><g transform="translate(-222 -68)"><path d="M571.948 453.938 643.989 453.938 643.989 484.812 571.948 484.812Z" fill="#FFFFFF"/><path d="M571.948 402.479 643.989 402.479 643.989 433.354 571.948 433.354Z" fill="#FFFFFF"/><path d="M571.948 351.021 643.989 351.021 643.989 381.896 571.948 381.896Z" fill="#FFFFFF"/><path d="M571.948 299.562 643.989 299.562 643.989 330.438 571.948 330.438Z" fill="#FFFFFF"/><path d="M571.948 248.104 643.989 248.104 643.989 278.979 571.948 278.979Z" fill="#FFFFFF"/><path d="M571.948 196.646 643.989 196.646 643.989 227.521 571.948 227.521Z" fill="#FFFFFF"/><path d="M479.323 453.938 551.364 453.938 551.364 484.812 479.323 484.812Z" fill="#FFFFFF"/><path d="M479.323 402.479 551.364 402.479 551.364 433.354 479.323 433.354Z" fill="#FFFFFF"/><path d="M479.323 351.021 551.364 351.021 551.364 381.896 479.323 381.896Z" fill="#FFFFFF"/><path d="M386.692 453.938 458.734 453.938 458.734 484.812 386.692 484.812Z" fill="#FFFFFF"/><path d="M386.692 402.479 458.734 402.479 458.734 433.354 386.692 433.354Z" fill="#FFFFFF"/><path d="M386.692 351.021 458.734 351.021 458.734 381.896 386.692 381.896Z" fill="#FFFFFF"/><path d="M386.692 299.562 458.734 299.562 458.734 330.438 386.692 330.438Z" fill="#FFFFFF"/><path d="M386.692 248.104 458.734 248.104 458.734 278.979 386.692 278.979Z" fill="#FFFFFF"/><path d="M386.692 196.646 458.734 196.646 458.734 227.521 386.692 227.521Z" fill="#FFFFFF"/><path d="M386.692 145.188 458.734 145.188 458.734 176.062 386.692 176.062Z" fill="#FFFFFF"/><path d="M294.067 453.938 366.109 453.938 366.109 484.812 294.067 484.812Z" fill="#FFFFFF"/><path d="M294.067 402.479 366.109 402.479 366.109 433.354 294.067 433.354Z" fill="#FFFFFF"/><path d="M294.067 351.021 366.109 351.021 366.109 381.896 294.067 381.896Z" fill="#FFFFFF"/><path d="M294.067 299.562 366.109 299.562 366.109 330.438 294.067 330.438Z" fill="#FFFFFF"/><path d="M294.067 248.104 366.109 248.104 366.109 278.979 294.067 278.979Z" fill="#FFFFFF"/></g></svg>