<svg width="593" height="593" xmlns="http://www.w3.org/2000/svg" xmlns:xlink="http://www.w3.org/1999/xlink" xml:space="preserve" overflow="hidden"><g transform="translate(-179 -19)"><path d="M697.875 470.545C686.093 465.696 673.545 462.977 660.812 462.515L660.812 462.515C648.08 462.977 635.532 465.696 623.75 470.545 615.84 473.63 607.51 475.504 599.042 476.104L599.042 476.104C590.573 475.504 582.243 473.63 574.333 470.545 562.552 465.696 550.003 462.977 537.271 462.515L537.271 462.515C524.539 462.977 511.99 465.696 500.208 470.545 492.299 473.63 483.969 475.504 475.5 476.104 467.031 475.505 458.701 473.63 450.792 470.545 439.01 465.696 426.461 462.977 413.729 462.515L413.729 462.515C400.997 462.977 388.448 465.696 376.667 470.545 368.757 473.63 360.427 475.504 351.958 476.104 343.49 475.504 335.16 473.63 327.25 470.545 315.468 465.696 302.92 462.977 290.188 462.515L290.188 462.515C277.455 462.977 264.907 465.696 253.125 470.545 245.215 473.63 236.885 475.504 228.417 476.104L228.417 513.167C241.149 512.704 253.698 509.985 265.479 505.136 273.298 501.764 281.677 499.879 290.188 499.577 298.656 500.178 306.986 502.052 314.896 505.136 326.677 509.985 339.226 512.704 351.958 513.167L351.958 513.167C364.691 512.704 377.239 509.985 389.021 505.136 396.84 501.764 405.219 499.879 413.729 499.577 422.198 500.178 430.528 502.052 438.438 505.136 450.219 509.985 462.768 512.704 475.5 513.167 488.232 512.704 500.781 509.985 512.562 505.136 520.381 501.764 528.761 499.879 537.271 499.577 545.74 500.178 554.069 502.052 561.979 505.136 573.761 509.985 586.309 512.704 599.042 513.167L599.042 513.167C611.774 512.704 624.323 509.985 636.104 505.136 643.923 501.764 652.302 499.879 660.812 499.577 669.281 500.178 677.611 502.052 685.521 505.136 697.302 509.985 709.851 512.704 722.583 513.167L722.583 476.104C714.115 475.504 705.785 473.63 697.875 470.545Z" fill="#FFFFFF"/><path d="M323.853 340.208 404.155 401.979C405.313 402.895 406.553 403.702 407.861 404.388L404.711 426.502C407.676 426.132 410.888 425.885 413.667 425.699 426.4 426.162 438.948 428.881 450.73 433.729 458.64 436.814 466.969 438.688 475.438 439.289 483.907 438.689 492.237 436.815 500.147 433.729 511.928 428.881 524.477 426.162 537.209 425.699 549.941 426.162 562.49 428.881 574.272 433.729 582.181 436.814 590.511 438.688 598.98 439.289 603.751 438.964 608.485 438.22 613.125 437.065L556.976 375.294C552.305 370.153 546.037 366.736 539.186 365.596L435.658 348.3 376.111 302.59 385.438 246.996C387.729 230.093 375.883 214.534 358.98 212.243 342.793 210.05 327.697 220.84 324.532 236.866L312.178 310.991C310.445 322.13 314.92 333.33 323.853 340.208Z" fill="#FFFFFF"/><path d="M552.714 278.438C552.714 309.141 527.823 334.031 497.12 334.031 466.416 334.031 441.526 309.141 441.526 278.438 441.526 247.734 466.416 222.844 497.12 222.844 527.823 222.844 552.714 247.734 552.714 278.438Z" fill="#FFFFFF"/><path d="M416.818 148.719C416.818 172.599 397.459 191.958 373.578 191.958 349.698 191.958 330.339 172.599 330.339 148.719 330.339 124.838 349.698 105.479 373.578 105.479 397.459 105.479 416.818 124.838 416.818 148.719Z" fill="#FFFFFF"/></g></svg>