<svg width="531" height="531" xmlns="http://www.w3.org/2000/svg" xmlns:xlink="http://www.w3.org/1999/xlink" xml:space="preserve" overflow="hidden"><g transform="translate(-214 -81)"><path d="M551.406 152.906C551.406 177.345 531.595 197.156 507.156 197.156 482.718 197.156 462.906 177.345 462.906 152.906 462.906 128.468 482.718 108.656 507.156 108.656 531.595 108.656 551.406 128.468 551.406 152.906Z" fill="#FFFFFF"/><path d="M499.966 383.559 514.9 308.888 525.409 333.225C528.175 338.756 532.6 343.181 538.684 345.394L584.594 360.881 542.003 414.534 499.966 383.559ZM619.441 325.481 562.469 306.675C562.469 306.675 530.941 233.663 529.834 231.45 522.091 217.069 507.156 208.219 491.116 208.219 484.478 208.219 478.394 209.878 472.309 212.644 460.141 217.622 451.291 227.578 449.078 240.3L436.909 298.931 404.275 458.231 329.603 548.391C321.859 557.794 322.966 571.622 332.369 579.366 336.241 582.684 341.219 584.344 346.197 584.344 352.834 584.344 358.919 581.578 363.344 576.047L440.781 482.016C442.994 479.25 444.653 475.931 445.206 472.613L458.481 408.45 514.347 448.828 420.869 566.644C418.103 569.963 417.55 573.834 419.209 577.706 420.869 581.578 424.188 584.344 428.059 584.897 431.931 585.45 435.803 583.791 438.569 580.472L518.219 479.803 518.219 561.666C518.219 573.281 526.516 583.238 538.131 584.897 544.216 585.45 550.853 583.238 555.278 579.366 559.703 574.941 562.469 569.409 562.469 562.772L562.469 440.531C562.469 436.106 561.362 432.234 558.597 428.362L606.719 368.072C608.378 368.625 610.591 368.625 612.25 368.625 621.653 368.625 629.95 362.541 633.269 353.691 634.928 348.159 634.928 342.075 632.162 336.544 629.397 331.566 624.972 327.141 619.441 325.481Z" fill="#FFFFFF"/><path d="M387.128 189.413C388.234 183.328 394.319 179.456 399.85 180.562 405.934 181.669 409.806 187.753 408.7 193.284 407.594 199.369 401.509 203.241 395.978 202.134 389.894 201.028 386.022 194.944 387.128 189.413ZM435.803 198.263C439.122 181.116 430.272 163.416 414.231 156.225 398.191 149.034 379.384 152.906 367.769 166.181 356.153 179.456 355.6 198.816 365.556 213.197 360.025 212.091 354.494 215.962 353.388 222.047L332.922 323.822C330.156 335.438 332.922 347.053 340.666 356.456 347.856 365.859 358.919 370.837 370.534 370.837 389.341 370.284 404.828 356.456 408.147 338.203L428.612 236.428C429.166 233.663 428.612 230.897 426.953 228.131 425.294 225.919 423.081 224.259 420.316 223.153L419.209 223.153C428.059 218.175 434.144 208.772 435.803 198.263Z" fill="#FFFFFF"/></g></svg>