<svg width="456" height="456" xmlns="http://www.w3.org/2000/svg" xmlns:xlink="http://www.w3.org/1999/xlink" xml:space="preserve" overflow="hidden"><g transform="translate(-252 -119)"><path d="M603.025 128.5 603.025 128.5C606.35 140.85 615.375 151.3 627.25 157L627.25 157C615.375 162.7 606.825 173.15 603.025 185.5L603.025 185.5C599.7 173.15 590.675 162.7 578.8 157L578.8 157C590.675 151.3 599.7 140.85 603.025 128.5Z" fill="#FFFFFF"/><path d="M299.025 233 299.025 233C302.35 245.35 311.375 255.8 323.25 261.5L323.25 261.5C311.375 267.2 302.825 277.65 299.025 290L299.025 290C295.7 277.65 286.675 267.2 274.8 261.5L274.8 261.5C286.675 255.8 295.7 245.35 299.025 233Z" fill="#FFFFFF"/><path d="M346.05 138 346.05 138C348.9 148.45 356.5 157 366 161.75L366 161.75C356.025 166.5 348.9 175.05 346.05 185.5L346.05 185.5C343.2 175.05 335.6 166.5 326.1 161.75L326.1 161.75C335.6 157 343.2 148.45 346.05 138Z" fill="#FFFFFF"/><path d="M659.55 214 659.55 214C662.4 224.45 670 233 679.5 237.75L679.5 237.75C669.525 242.5 662.4 251.05 659.55 261.5L659.55 261.5C656.7 251.05 649.1 242.5 639.6 237.75L639.6 237.75C649.1 233 656.7 224.45 659.55 214Z" fill="#FFFFFF"/><path d="M480 306.625C476.2 306.625 472.875 303.3 472.875 299.5L472.875 252C472.875 248.2 476.2 244.875 480 244.875 483.8 244.875 487.125 248.2 487.125 252L487.125 299.5C487.125 303.3 483.8 306.625 480 306.625Z" fill="#FFFFFF"/><path d="M480 230.625C476.2 230.625 472.875 227.3 472.875 223.5L472.875 185.5C472.875 181.7 476.2 178.375 480 178.375 483.8 178.375 487.125 181.7 487.125 185.5L487.125 223.5C487.125 227.3 483.8 230.625 480 230.625Z" fill="#FFFFFF"/><path d="M480 164.125C476.2 164.125 472.875 160.8 472.875 157L472.875 138C472.875 134.2 476.2 130.875 480 130.875 483.8 130.875 487.125 134.2 487.125 138L487.125 157C487.125 160.8 483.8 164.125 480 164.125Z" fill="#FFFFFF"/><path d="M532.25 273.375C531.775 273.375 531.3 273.375 530.825 273.375 527.025 272.425 524.65 268.625 525.6 264.825L533.675 227.775C534.625 223.975 538.425 221.6 542.225 222.55 546.025 223.5 548.4 227.3 547.45 231.1L539.375 268.15C538.425 271 535.575 273.375 532.25 273.375Z" fill="#FFFFFF"/><path d="M546.5 208.3C546.025 208.3 545.55 208.3 545.075 208.3 541.275 207.35 538.9 203.55 539.85 199.75L539.85 199.75 546.025 171.725C546.975 167.925 550.3 165.55 554.575 166.025 558.375 166.975 560.75 170.3 560.275 174.575 560.275 174.575 560.275 174.575 560.275 175.05L554.1 203.075C552.675 205.925 549.825 208.3 546.5 208.3Z" fill="#FFFFFF"/><path d="M579.75 263.875C575.95 263.875 572.625 260.55 572.625 256.75 572.625 255.325 573.1 253.9 574.05 252.475L606.35 205.45C608.725 202.125 613 201.65 616.325 204.025 619.175 206.4 620.125 210.2 618.225 213.525L585.925 260.55C584.5 262.925 582.125 263.875 579.75 263.875Z" fill="#FFFFFF"/><path d="M427.75 273.375C424.425 273.375 421.575 271 420.625 267.675L410.65 221.125C409.7 217.325 412.55 213.525 416.35 212.575 420.15 211.625 423.95 214 424.425 217.8L434.4 264.35C435.35 268.15 432.975 271.95 429.175 272.9 428.7 273.375 428.225 273.375 427.75 273.375Z" fill="#FFFFFF"/><path d="M411.6 199.275C408.275 199.275 405.425 196.9 404.475 193.575L400.675 175.05C399.725 171.25 402.1 167.45 405.9 166.5 409.7 165.55 413.5 167.925 414.45 171.725 414.45 171.725 414.45 171.725 414.45 172.2L418.25 190.725C419.2 194.525 416.825 198.325 413.025 199.275L413.025 199.275C412.55 199.275 412.075 199.275 411.6 199.275L411.6 199.275Z" fill="#FFFFFF"/><path d="M380.25 263.875C377.875 263.875 375.5 262.925 374.55 261.025L342.25 214C340.35 210.675 341.3 206.4 344.625 204.025 347.95 202.125 351.75 202.6 354.125 205.925L386.425 252.95C388.8 256.275 387.85 260.55 384.525 262.925 383.1 263.4 381.675 263.875 380.25 263.875Z" fill="#FFFFFF"/><path d="M688.05 508.025 673.8 354.125C673.325 349.375 669.05 345.575 664.3 345.575 662.4 345.575 659.55 345.575 657.175 345.575L654.8 318.025 646.25 317.55C639.125 317.075 632 317.55 625.35 318.025L622.975 292.375 615.85 290.95C565.975 284.775 516.1 301.4 480 336.55 443.9 301.4 394.025 284.775 344.15 290.95L337.025 292.375 334.65 318.025C327.525 317.55 320.875 317.075 313.75 317.55L305.675 318.025 303.3 345.575C300.45 345.575 298.075 345.575 296.175 345.575 291.425 345.575 287.15 349.375 286.675 354.125L272.425 508.025C271.475 513.25 275.275 518 280.5 518.475 280.975 518.475 281.45 518.475 281.925 518.475 310.9 517.525 392.125 519.425 458.15 562.65 461.475 564.55 464.8 565.975 468.6 565.975L492.35 565.975C496.15 565.975 499.475 565.025 502.325 563.125 571.675 519.9 650.525 518 678.55 518.95 683.775 518.95 688.05 515.15 688.525 509.925 688.05 508.5 688.05 508.5 688.05 508.025ZM489.5 353.65C519.9 322.3 562.175 306.15 605.4 308.525L618.225 455.775C595.9 460.05 537.95 474.3 489.5 516.1L489.5 353.65ZM354.6 309C397.825 306.625 440.1 322.775 470.5 354.125L470.5 516.575C422.05 474.775 364.1 460.525 341.775 456.25L354.6 309ZM309 484.75 323.25 336.075C326.1 336.075 329.425 336.55 333.225 336.55L321.35 472.4 330.375 473.35C331.325 473.35 411.6 483.8 467.65 539.375L467.65 539.375C405.425 491.875 336.075 485.7 309 484.75ZM492.35 540.325 492.35 540.325C549.35 484.275 629.15 473.35 629.625 473.35L638.65 472.4 626.775 336.55C630.575 336.075 633.9 336.075 636.75 336.075L651 484.75C623.925 485.7 554.575 492.35 492.35 540.325Z" fill="#FFFFFF"/></g></svg>