<svg width="512" height="512" xmlns="http://www.w3.org/2000/svg" xmlns:xlink="http://www.w3.org/1999/xlink" xml:space="preserve" overflow="hidden"><g transform="translate(-224 -104)"><path d="M616.533 292.267C621.867 282.667 623.467 271.467 620.8 260.8 630.4 247.467 632.533 229.867 624 214.4 621.867 210.667 619.733 207.467 616.533 204.8 624 206.933 629.867 212.8 632.533 221.333 632.533 221.867 632.533 222.4 632.533 222.933 642.667 223.467 651.2 230.4 654.4 240 658.133 252.8 650.667 266.133 637.867 269.867 640 276.8 638.4 283.733 634.667 289.6 628.8 290.133 618.667 292.267 616.533 292.267ZM581.333 538.667 550.933 538.667 568.533 331.2C588.8 329.067 606.4 326.4 620.8 323.733L581.333 538.667ZM529.6 538.667 490.667 538.667 490.667 336C510.933 336 529.6 334.933 547.2 333.333L529.6 538.667ZM478.933 252.267C483.733 249.067 489.6 248 495.467 249.067 495.467 248.533 496 248.533 496 248 502.4 237.867 515.2 235.2 525.333 241.067 535.467 246.933 538.133 260.267 532.267 270.4 532.267 270.933 531.733 270.933 531.733 271.467 537.067 278.4 538.133 288 533.333 296 531.733 298.667 529.6 300.8 526.933 302.4 523.733 302.4 502.4 303.467 485.867 303.467 489.067 297.067 491.2 290.133 491.2 282.133 490.667 270.933 486.4 260.267 478.933 252.267ZM469.333 538.667 430.4 538.667 412.8 333.333C429.867 334.933 449.067 335.467 469.333 336L469.333 538.667ZM379.2 538.667 343.467 324.267C356.8 326.933 372.8 329.067 391.467 331.2L409.067 538.667 379.2 538.667ZM325.333 277.333C325.333 265.067 335.467 254.933 347.733 254.933 350.4 254.933 353.067 255.467 355.2 256.533 355.2 256 355.2 255.467 355.2 254.933 355.2 242.667 350.933 232.533 363.2 232.533 364.8 232.533 365.867 232.533 366.933 233.067 366.933 233.6 367.467 234.133 367.467 234.667 368.533 236.267 369.067 237.867 370.133 238.933 370.133 245.333 372.267 251.733 374.933 258.133 370.133 265.6 366.933 274.133 366.933 283.733 366.933 288.533 367.467 292.8 369.067 297.6 352 294.933 338.133 292.267 327.467 290.133 326.4 285.333 325.333 281.6 325.333 277.333ZM396.8 190.4C398.4 189.333 400 188.8 401.6 188.267 403.2 182.4 407.467 177.067 413.333 173.867 425.6 167.467 440.533 171.733 446.933 184 447.467 185.067 448 186.667 448.533 187.733 457.6 187.2 467.2 192 471.467 200.533 477.333 211.2 474.133 224.533 465.067 231.467 456.533 220.8 443.733 213.867 429.333 213.867 414.4 213.867 401.067 221.333 393.067 232.533 393.067 232 393.067 232 393.067 231.467 390.933 229.333 388.8 227.2 387.2 224 380.267 211.733 385.067 196.8 396.8 190.4ZM457.067 303.467C434.667 302.933 414.4 301.333 396.8 299.733 392.533 295.467 389.867 289.6 389.867 282.667 389.867 272 396.8 263.467 405.867 260.267 405.867 259.733 405.867 259.2 405.867 258.667 405.867 245.333 416.533 234.667 429.867 234.667 443.2 234.667 453.867 245.333 453.867 258.667 453.867 259.2 453.867 259.733 453.867 260.267 463.467 263.467 469.867 272.533 469.867 282.667 469.333 291.733 464 299.733 457.067 303.467ZM497.067 190.4C499.733 190.4 502.4 190.933 504.533 192 504.533 191.467 504.533 190.933 504.533 190.4 504.533 178.133 514.667 168 526.933 168 539.2 168 549.333 178.133 549.333 190.4 549.333 190.933 549.333 191.467 549.333 192 549.333 192 549.333 192 548.8 192 541.867 192 534.4 193.6 528.533 197.333 520.533 201.6 514.133 208.533 509.867 217.067 504.533 217.6 499.2 219.2 493.867 221.333 496 211.2 494.4 201.067 490.133 192 493.333 190.933 495.467 190.4 497.067 190.4ZM568 223.467C570.133 220.267 572.267 218.133 576 216 586.667 210.133 600 214.4 605.333 224.533 611.2 235.2 606.933 248.533 596.8 253.867 595.733 254.4 594.667 254.933 594.133 254.933 595.733 256.533 597.333 258.133 598.4 260.267 604.267 270.933 600 284.267 589.867 289.6 581.333 293.867 571.733 292.8 564.8 286.4 563.733 287.467 562.133 288.533 560.533 289.6 559.467 290.133 558.4 290.667 556.8 291.2 557.867 284.267 557.333 276.8 555.2 269.867 560.533 252.267 553.067 232 537.067 221.867 536 221.333 534.933 220.8 533.333 220.267 534.933 218.133 537.067 216.533 539.733 214.933 549.333 210.667 561.6 213.867 568 223.467ZM675.2 234.133C671.467 220.267 661.333 209.6 648.533 204.8 638.4 187.733 617.6 178.667 597.333 184.533 591.467 186.133 586.133 189.333 581.333 193.067 579.733 193.067 578.133 193.6 577.067 193.6 575.467 191.467 573.867 189.867 571.733 188.267 570.133 164.8 550.933 146.667 527.467 146.667 510.4 146.667 496 156.267 488.533 170.133 484.267 171.2 480.533 172.267 476.8 174.4 472.533 171.2 467.2 168.533 461.867 167.467 453.333 156.267 440 149.333 425.067 149.333 417.6 149.333 409.6 151.467 403.2 154.667 395.733 158.933 389.333 164.8 385.6 171.733 371.733 179.733 363.2 194.667 362.667 210.133 346.133 210.667 339.2 219.2 339.2 233.6 318.933 237.867 304 255.467 304 276.8 304 278.933 304 282.133 304 282.133L352 570.133 608 570.133 661.333 282.133 659.733 281.067C673.6 270.4 680 251.733 675.2 234.133Z" fill="#FFFFFF"/></g></svg>